<svg version="1.1" id="Layer_1" xmlns="http://www.w3.org/2000/svg" xmlns:xlink="http://www.w3.org/1999/xlink" x="0px" y="0px" viewBox="0 0 494.1 100" style="enable-background:new 0 0 494.1 100;" xml:space="preserve">
 <path d="M0,10.7h14.2v74.5h39.3v13.1H0V10.7z M67.5,10.7c4.8,0,8.9,3.7,8.9,8.6c0,4.9-4,8.8-8.9,8.8c-4.9,0-8.9-3.9-8.9-8.8
	C58.6,14.5,62.5,10.7,67.5,10.7z M60.5,35.2h13.6v63.2H60.5V35.2z M82.2,35.2h13.6v8.7c4-6.7,10.9-10.4,20.1-10.4
	c14.8,0,24,11.5,24,29.7v35.1h-13.6V64.5c0-11.8-5.2-18.5-14.5-18.5c-10.3,0-15.9,7-15.9,19.6v32.7H82.2L82.2,35.2L82.2,35.2z
	 M147.1,10.7h13.6v55.4l25.4-30.9h17.1l-27.1,31.6l27.1,31.5h-17.1l-25.4-30.8v30.8h-13.6V10.7z M208.6,19.1h13.9v16.1h16.2v11.3
	h-16.2v32.5c0,4.1,2.5,6.7,6.5,6.7h9.1v12.7h-10.9c-11.8,0-18.5-7-18.5-19.4L208.6,19.1L208.6,19.1z M245.6,35.2h12.6V43
	c3.4-6,9-9.5,15.9-9.5c2.1,0,3.2,0.1,4.8,0.6v12.6c-0.9-0.2-2.3-0.5-5.1-0.5c-10,0-15.5,8.4-15.5,22.8v29.2h-13.6V35.2H245.6z
	 M310.8,33.5c15,0,31.3,9,31.3,34.7V70h-48.8c1.1,11.3,7.6,17.5,18.6,17.5c7.9,0,14.5-4.2,16-10.1h13.9
	C340.3,90,327.1,100,311.8,100c-19.6,0-32-12.7-32-33.3C279.8,48.4,291.7,33.5,310.8,33.5z M327.5,58.8c-1.9-7.8-8.1-12.7-16.7-12.7
	c-8.3,0-14.2,5-16.5,12.7H327.5z M379.1,33.5c15,0,31.3,9,31.3,34.7V70h-48.8c1.1,11.3,7.6,17.5,18.6,17.5c7.9,0,14.5-4.2,16-10.1
	H410C408.6,90,395.4,100,380.1,100c-19.6,0-32-12.7-32-33.3C348.1,48.4,360,33.5,379.1,33.5z M395.8,58.8
	c-1.9-7.8-8.1-12.7-16.8-12.7c-8.3,0-14.2,5-16.5,12.7H395.8z M413.7,33.3H438l-17.3-16.4l9.5-9.7L446.7,24V0h14.3v24l16.5-16.8
	l9.5,9.7l-17.3,16.4h24.3v13.6h-24.5L487,63.7l-9.5,9.5l-23.7-23.7l-23.7,23.7l-9.5-9.5L438,46.8h-24.5V33.3H413.7z M446.8,66.2
	h14.3v32.2h-14.3V66.2z">
 </path>
</svg>